# AST/ASF file generated using VICON BodyLanguage
# -----------------------------------------------
:version 1.10
:name VICON
:units
  mass 1.0
  length 0.45
  angle deg
:documentation
   .ast/.asf automatically generated from VICON data using
   VICON BodyBuilder and BodyLanguage model FoxedUp or BRILLIANT.MOD
:root
   order TX TY TZ RX RY RZ
   axis XYZ
   position 0 0 0  
   orientation 0 0 0 
:bonedata
  begin
     id 1 
     name lhipjoint
     direction 0.822369 -0.411937 0.392449 
     length 3.8167 
     axis 0 0 0  XYZ
  end
  begin
     id 2 
     name lfemur
     direction 0.34202 -0.939693 0  
     length 6.16791  
     axis 0 0 20  XYZ
    dof rx ry rz
    limits (-160.0 20.0)
           (-70.0 70.0)
           (-60.0 70.0)
  end
  begin
     id 3 
     name ltibia
     direction 0.34202 -0.939693 0   
     length 7.07101   
     axis 0 0 20   XYZ
    dof rx
    limits (-10.0 170.0)
  end
  begin
     id 4 
     name lfoot
     direction 0.028254 -0.0776273 0.996582   
     length 1.66799   
     axis -90 7.62852e-016 20   XYZ
    dof rx rz
    limits (-45.0 90.0)
           (-70.0 20.0)
  end
  begin
     id 5 
     name ltoes
     direction 1.53483e-011 -4.21688e-011 1   
     length 0.851674   
     axis -90 7.62852e-016 20   XYZ
    dof rx
    limits (-90.0 20.0)
  end
  begin
     id 6 
     name rhipjoint
     direction -0.822466 -0.411836 0.392353   
     length 3.81764  
     axis 0 0 0  XYZ 
  end
  begin
     id 7 
     name rfemur
     direction -0.34202 -0.939693 0   
     length 6.28636   
     axis 0 0 -20   XYZ
    dof rx ry rz
    limits (-160.0 20.0)
           (-70.0 70.0)
           (-70.0 60.0)
  end
  begin
     id 8 
     name rtibia
     direction -0.34202 -0.939693 0   
     length 6.85621   
     axis 0 0 -20   XYZ
    dof rx
    limits (-10.0 170.0)
 end
 begin
     id 9 
     name rfoot
     direction -0.0553036 -0.151945 0.98684   
     length 1.57293  
     axis -90 -7.62852e-016 -20   XYZ
    dof rx rz
    limits (-45.0 90.0)
           (-20.0 70.0)
  end
  begin
     id 10 
     name rtoes
     direction -1.53592e-011 -4.21964e-011 1   
     length 0.802812   
     axis -90 -7.62852e-016 -20   XYZ
    dof rx
    limits (-90.0 20.0)
  end
  begin
     id 11 
     name lowerback
     direction 0.00654913 0.996475 -0.0836396   
     length 1.97212   
     axis 0 0 0   XYZ
    dof rx ry rz
    limits (-20.0 45.0)
           (-30.0 30.0)
           (-30.0 30.0)
  end
  begin
     id 12 
     name upperback
     direction 0.0111875 0.994527 0.103877   
     length 1.89704   
     axis 0 0 0   XYZ
    dof rx ry rz
    limits (-20.0 45.0)
           (-30.0 30.0)
           (-30.0 30.0)
  end
  begin
     id 13 
     name thorax
     direction 0.00473652 0.989004 0.147814   
     length 1.94516   
     axis 0 0 0   XYZ
    dof rx ry rz
    limits (-20.0 45.0)
           (-30.0 30.0)
           (-30.0 30.0)
  end
  begin
     id 14 
     name lowerneck
     direction -0.00925808 0.999011 0.0434791   
     length 1.81771   
     axis 0 0 0   XYZ
    dof rx ry rz
    limits (-20.0 45.0)
           (-30.0 30.0)
           (-30.0 30.0)
  end
  begin
     id 15 
     name upperneck
     direction 0.00451595 0.964412 -0.264365   
     length 1.80434   
     axis 0 0 0   XYZ
    dof rx ry rz
    limits (-20.0 45.0)
           (-30.0 30.0)
           (-30.0 30.0)
  end
  begin
     id 16
     name head
     direction -0.00110849 0.995756 -0.0920241  
     length 1.84006  
     axis 0 0 0   XYZ
    dof rx ry rz
    limits (-20.0 45.0)
           (-30.0 30.0)
           (-30.0 30.0)
  end
  begin
     id 17 
     name lclavicle
     direction 0.921253 0.385213 0.0538957  
     length 3.67415  
     axis 0 0 0   XYZ
    dof ry rz
    limits (-20.0 10.0)
           (0.0 20.0)
  end
  begin
     id 18 
     name lhumerus
     direction 1 -4.48961e-011 6.73441e-028   
     length 4.32712   
     axis 180 -30 -90   XYZ
    dof rx ry rz
    limits (-60.0 90.0)
           (-90.0 90.0)
           (-90.0 90.0)
  end
  begin
     id 19
     name lradius
     direction 1 -4.48985e-011 -9.53507e-028   
     length 3.28587   
     axis 180 -30 -90   XYZ
    dof rx
    limits (-10.0 170.0)
  end
  begin
     id 20
     name lwrist
     direction 1 -4.48951e-011 -4.67472e-027   
     length 1.64293   
     axis 1.65735e-015 90 90   XYZ
    dof ry
    limits (-180.0 0.0)
 end
  begin
     id 21 
     name lhand
     direction 1 -4.48946e-011 -9.34945e-027   
     length 0.433158   
     axis 5.96574e-015 90 90   XYZ
    dof rx rz
    limits (-90.0 90.0)
           (-45.0 45.0)
  end
  begin
     id 22 
     name lfingers
     direction 1 -4.48882e-011 -1.86989e-026   
     length 0.349224   
     axis 1.19315e-014 90 90   XYZ
    dof rx
    limits (0.0 90.0)
  end
  begin
     id 23
     name lthumb
     direction 0.707107 -6.3493e-011 0.707107   
     length 0.501417   
     axis -90 45 2.85299e-015   XYZ
    dof rx rz
    limits (-45.0 45.0)
           (-45.0 45.0)
  end
  begin
     id 24 
     name rclavicle
     direction -0.884378 0.46502 -0.0403866   
     length 3.50218  
     axis 0 0 0   XYZ 
    dof ry rz
    limits (-10.0 20.0)
           (-20.0 0.0)
  end
  begin
     id 25 
     name rhumerus
     direction -1 -4.48964e-011 1.58188e-027  
     length 4.29104   
     axis 180 30 90   XYZ
    dof rx ry rz
    limits (-90.0 60.0)
           (-90.0 90.0)
           (-90.0 90.0)
  end
  begin
     id 26 
     name rradius
     direction -1 -4.48978e-011 -1.9722e-027   
     length 3.2272   
     axis 180 30 90   XYZ
    dof rx
    limits (-10.0 170.0)
  end
  begin
     id 27 
     name rwrist
     direction -1 -4.48969e-011 -4.67472e-027   
     length 1.6136   
     axis 1.65735e-015 -90 -90   XYZ
    dof ry
    limits (-180.0 0.0)
  end
  begin
     id 28
     name rhand
     direction -1 -4.48846e-011 -9.34945e-027   
     length 0.543623   
     axis 5.96574e-015 -90 -90   XYZ
    dof rx rz
    limits (-90.0 90.0)
           (-45.0 45.0)
  end
  begin
     id 29
     name rfingers
     direction -1 -4.49074e-011 -1.86989e-026   
     length 0.438283   
     axis 1.19315e-014 -90 -90   XYZ
    dof rx
    limits (0.0 90.0)
  end
  begin
     id 30
     name rthumb
     direction -0.707107 -6.34834e-011 0.707107   
     length 0.629289   
     axis -90 -45 -2.85299e-015   XYZ
    dof rx rz
    limits (-45.0 45.0)
           (-45.0 45.0)
  end
:hierarchy
  begin
    root lhipjoint rhipjoint lowerback
    lhipjoint lfemur
    lfemur ltibia
    ltibia lfoot
    lfoot ltoes
    rhipjoint rfemur
    rfemur rtibia
    rtibia rfoot
    rfoot rtoes
    lowerback upperback
    upperback thorax
    thorax lowerneck lclavicle rclavicle
    lowerneck upperneck
    upperneck head
    lclavicle lhumerus
    lhumerus lradius
    lradius lwrist
    lwrist lhand lthumb
    lhand lfingers
    rclavicle rhumerus
    rhumerus rradius
    rradius rwrist
    rwrist rhand rthumb
    rhand rfingers
  end

#!OML:ASF H:\GeneralSubjects\Female5\Project 1\Capture day 1\Session 1\Female5.ASF
:FULLY-SPECIFIED
:DEGREES
69
root -36.1108 14.5925 5.43591 -30.7544 88.0721 -59.381
lowerback 16.5141 1.07875 2.42534
upperback -7.8949 2.35522 1.02613
thorax -18.5429 0.881244 -0.93981
lowerneck -25.0415 5.38288 2.86851
upperneck 35.7128 8.85951 -2.51196
head 17.6738 3.83031 0.411211
rclavicle -4.77083e-015 1.47101e-014
rhumerus -50.6444 28.7602 -91.9609
rradius 39.853
rwrist 1.27159
rhand -18.736 -19.6813
rfingers 7.12502
rthumb 7.56001 -49.5262
lclavicle -4.77083e-015 1.47101e-014
lhumerus -46.0914 -5.26676 77.1683
lradius 40.5987
lwrist -3.42576
lhand -25.2019 36.755
lfingers 7.12502
lthumb 1.31658 66.7307
rfemur -43.2232 10.9805 31.104
rtibia 48.4163
rfoot -28.7358 -7.78595
rtoes -10.1389
lfemur -50.6278 -6.88709 -25.055
ltibia 60.5589
lfoot -12.2896 -13.2159
ltoes -34.8926
70
root -35.9774 14.5607 5.42593 -31.5411 87.9836 -59.6186
lowerback 16.1918 1.13939 2.19502
upperback -8.13381 2.43791 1.2835
thorax -18.6597 0.97517 -0.53042
lowerneck -25.0651 5.16733 2.66387
upperneck 35.9646 8.73723 -2.66234
head 17.8123 3.73472 0.357911
rclavicle 3.97569e-015 7.95139e-015
rhumerus -46.3021 30.3555 -88.7688
rradius 45.6657
rwrist 3.66614
rhand -19.0183 -19.67
rfingers 7.12502
rthumb 7.28745 -49.5245
lclavicle 3.97569e-015 7.95139e-015
lhumerus -42.824 -8.58226 79.3762
lradius 48.4975
lwrist -1.88642
lhand -25.3054 38.3231
lfingers 7.12502
lthumb 1.21664 68.2994
rfemur -42.3211 9.95185 31.5553
rtibia 49.2007
rfoot -28.5446 -7.45714
rtoes -11.9861
lfemur -49.3152 -6.61806 -25.3247
ltibia 60.6129
lfoot -12.3045 -12.7074
ltoes -34.7758
71
root -35.8171 14.5708 5.41517 -35.0022 87.8616 -62.4351
lowerback 15.668 1.16668 2.03666
upperback -8.45655 2.50643 1.59622
thorax -18.7543 1.06451 -0.0881952
lowerneck -24.9257 4.9521 2.42051
upperneck 36.3457 8.62798 -2.71838
head 17.9739 3.65982 0.354865
rclavicle 4.57205e-015 3.81667e-014
rhumerus -42.0667 31.0108 -85.0081
rradius 52.5
rwrist 4.9389
rhand -19.4365 -20.0629
rfingers 7.12502
rthumb 6.88378 -49.931
lclavicle 4.57205e-015 3.81667e-014
lhumerus -39.9402 -11.552 80.555
lradius 57.1854
lwrist -0.814835
lhand -25.709 40.0521
lfingers 7.12502
lthumb 0.826769 70.0303
rfemur -40.8205 8.86777 32.0426
rtibia 49.2366
rfoot -28.0673 -7.34754
rtoes -14.4178
lfemur -47.6118 -6.48314 -25.4246
ltibia 60.2488
lfoot -12.268 -12.0596
ltoes -34.6054
72
root -35.6266 14.6287 5.40362 -39.92 87.7192 -66.5889
lowerback 15.0005 1.15589 1.93413
upperback -8.83885 2.54716 1.94469
thorax -18.8321 1.14302 0.375871
lowerneck -24.6418 4.74311 2.11517
upperneck 36.8468 8.52948 -2.63966
head 18.1545 3.6066 0.425382
rclavicle -6.75868e-015 -2.70347e-014
rhumerus -38.2623 30.9064 -81.1678
rradius 60.1623
rwrist 4.67485
rhand -20.4468 -20.4112
rfingers 7.12502
rthumb 5.90849 -50.3089
lclavicle -6.75868e-015 -2.70347e-014
lhumerus -37.3455 -14.164 80.9208
lradius 66.0501
lwrist -0.194258
lhand -26.5192 41.1494
lfingers 7.12502
lthumb 0.0443269 71.1291
rfemur -38.6832 7.70041 32.4996
rtibia 48.4512
rfoot -27.1266 -7.56953
rtoes -17.9945
lfemur -45.4282 -6.4664 -25.4079
ltibia 59.3835
lfoot -12.1337 -11.4059
ltoes -34.4119
73
root -35.403 14.739 5.39147 -45.1659 87.5774 -70.9028
lowerback 14.2787 1.11579 1.90493
upperback -9.24663 2.5645 2.2698
thorax -18.9027 1.20296 0.779414
lowerneck -24.2178 4.51914 1.81532
upperneck 37.4526 8.39791 -2.48331
head 18.3557 3.55874 0.523241
rclavicle -1.8487e-014 -2.94201e-014
rhumerus -35.1074 30.2899 -77.6036
rradius 68.299
rwrist 3.24617
rhand -21.5919 -20.6742
rfingers 7.12502
rthumb 4.80284 -50.5998
lclavicle -1.8487e-014 -2.94201e-014
lhumerus -35.0623 -16.5416 80.574
lradius 74.7576
lwrist 0.149825
lhand -27.2536 41.148
lfingers 7.12502
lthumb -0.664995 71.1268
rfemur -35.8456 6.42853 32.8456
rtibia 46.7694
rfoot -25.6722 -7.92345
rtoes -21.7245
lfemur -42.6504 -6.53722 -25.3427
ltibia 57.9
lfoot -11.8931 -10.7811
ltoes -34.2792
